<?xml version="1.0" encoding="UTF-8" standalone="no"?>
<!-- Created with Inkscape (http://www.inkscape.org/) -->

<svg
   xmlns:dc="http://purl.org/dc/elements/1.1/"
   xmlns:cc="http://creativecommons.org/ns#"
   xmlns:rdf="http://www.w3.org/1999/02/22-rdf-syntax-ns#"
   xmlns:svg="http://www.w3.org/2000/svg"
   xmlns="http://www.w3.org/2000/svg"
   xmlns:sodipodi="http://sodipodi.sourceforge.net/DTD/sodipodi-0.dtd"
   xmlns:inkscape="http://www.inkscape.org/namespaces/inkscape"
   width="23.440557mm"
   height="6.941925mm"
   viewBox="0 0 23.440557 6.941925"
   version="1.1"
   id="svg8"
   inkscape:version="0.92.2 5c3e80d, 2017-08-06"
   sodipodi:docname="n_l_inkscape.svg">
  <defs
     id="defs2">
    <clipPath
       id="clipPath1102"
       clipPathUnits="userSpaceOnUse">
      <path
         inkscape:connector-curvature="0"
         id="path1100"
         d="M 0,240 H 240 V 0 H 0 Z" />
    </clipPath>
    <clipPath
       id="clipPath1937"
       clipPathUnits="userSpaceOnUse">
      <path
         inkscape:connector-curvature="0"
         id="path1935"
         d="M 0,240 H 240 V 0 H 0 Z" />
    </clipPath>
  </defs>
  <sodipodi:namedview
     id="base"
     pagecolor="#ffffff"
     bordercolor="#666666"
     borderopacity="1.0"
     inkscape:pageopacity="0.0"
     inkscape:pageshadow="2"
     inkscape:zoom="4"
     inkscape:cx="153.44887"
     inkscape:cy="7.3279565"
     inkscape:document-units="mm"
     inkscape:current-layer="layer1"
     showgrid="false"
     fit-margin-top="0"
     fit-margin-left="0"
     fit-margin-right="0"
     fit-margin-bottom="0"
     inkscape:window-width="1920"
     inkscape:window-height="1155"
     inkscape:window-x="0"
     inkscape:window-y="368"
     inkscape:window-maximized="1" />
  <metadata
     id="metadata5">
    <rdf:RDF>
      <cc:Work
         rdf:about="">
        <dc:format>image/svg+xml</dc:format>
        <dc:type
           rdf:resource="http://purl.org/dc/dcmitype/StillImage" />
        <dc:title></dc:title>
      </cc:Work>
    </rdf:RDF>
  </metadata>
  <g
     inkscape:label="Layer 1"
     inkscape:groupmode="layer"
     id="layer1"
     transform="translate(-317.1047,-26.503298)">
    <g
       id="g2980"
       transform="matrix(0.28831993,0,0,0.29734849,225.91294,19.901026)">
      <path
         d="m 319.97042,24.335442 c 0,1.017411 -0.82479,1.841853 -1.84185,1.841853 -1.01741,0 -1.84186,-0.824442 -1.84186,-1.841853 0,-1.017058 0.82445,-1.841853 1.84186,-1.841853 1.01706,0 1.84185,0.824795 1.84185,1.841853"
         style="fill:#800000;fill-opacity:1;fill-rule:nonzero;stroke:none;stroke-width:0.35277778"
         id="path1941"
         inkscape:connector-curvature="0" />
      <path
         d="m 324.79614,24.335442 c 0,1.017411 -0.82444,1.841853 -1.84185,1.841853 -1.01706,0 -1.84186,-0.824442 -1.84186,-1.841853 0,-1.017058 0.8248,-1.841853 1.84186,-1.841853 1.01741,0 1.84185,0.824795 1.84185,1.841853"
         style="fill:#800000;fill-opacity:1;fill-rule:nonzero;stroke:none;stroke-width:0.35277778"
         id="path1945"
         inkscape:connector-curvature="0" />
      <path
         d="m 329.62204,24.335442 c 0,1.017411 -0.82444,1.841853 -1.84185,1.841853 -1.01706,0 -1.84186,-0.824442 -1.84186,-1.841853 0,-1.017058 0.8248,-1.841853 1.84186,-1.841853 1.01741,0 1.84185,0.824795 1.84185,1.841853"
         style="fill:#800000;fill-opacity:1;fill-rule:nonzero;stroke:none;stroke-width:0.35277778"
         id="path1949"
         inkscape:connector-curvature="0" />
      <path
         d="m 334.44793,24.335442 c 0,1.017411 -0.82479,1.841853 -1.84185,1.841853 -1.01741,0 -1.84186,-0.824442 -1.84186,-1.841853 0,-1.017058 0.82445,-1.841853 1.84186,-1.841853 1.01706,0 1.84185,0.824795 1.84185,1.841853"
         style="fill:#800000;fill-opacity:1;fill-rule:nonzero;stroke:none;stroke-width:0.35277778"
         id="path1953"
         inkscape:connector-curvature="0" />
      <path
         d="m 339.27382,24.335442 c 0,1.017411 -0.82479,1.841853 -1.84185,1.841853 -1.01741,0 -1.84186,-0.824442 -1.84186,-1.841853 0,-1.017058 0.82445,-1.841853 1.84186,-1.841853 1.01706,0 1.84185,0.824795 1.84185,1.841853"
         style="fill:#800000;fill-opacity:1;fill-rule:nonzero;stroke:none;stroke-width:0.35277778"
         id="path1957"
         inkscape:connector-curvature="0" />
      <path
         d="m 344.09954,24.335442 c 0,1.017411 -0.82444,1.841853 -1.84185,1.841853 -1.01706,0 -1.84186,-0.824442 -1.84186,-1.841853 0,-1.017058 0.8248,-1.841853 1.84186,-1.841853 1.01741,0 1.84185,0.824795 1.84185,1.841853"
         style="fill:#800000;fill-opacity:1;fill-rule:nonzero;stroke:none;stroke-width:0.35277778"
         id="path1961"
         inkscape:connector-curvature="0" />
      <path
         d="m 348.92544,24.335442 c 0,1.017411 -0.82444,1.841853 -1.84185,1.841853 -1.01706,0 -1.84186,-0.824442 -1.84186,-1.841853 0,-1.017058 0.8248,-1.841853 1.84186,-1.841853 1.01741,0 1.84185,0.824795 1.84185,1.841853"
         style="fill:#800000;fill-opacity:1;fill-rule:nonzero;stroke:none;stroke-width:0.35277778"
         id="path1965"
         inkscape:connector-curvature="0" />
      <path
         d="m 319.97042,29.178552 c 0,1.017411 -0.82479,1.841853 -1.84185,1.841853 -1.01741,0 -1.84186,-0.824442 -1.84186,-1.841853 0,-1.017058 0.82445,-1.841853 1.84186,-1.841853 1.01706,0 1.84185,0.824795 1.84185,1.841853"
         style="fill:#800000;fill-opacity:1;fill-rule:nonzero;stroke:none;stroke-width:0.35277778"
         id="path1969"
         inkscape:connector-curvature="0" />
      <path
         d="m 324.79614,29.178552 c 0,1.017411 -0.82444,1.841853 -1.84185,1.841853 -1.01706,0 -1.84186,-0.824442 -1.84186,-1.841853 0,-1.017058 0.8248,-1.841853 1.84186,-1.841853 1.01741,0 1.84185,0.824795 1.84185,1.841853"
         style="fill:#800000;fill-opacity:1;fill-rule:nonzero;stroke:none;stroke-width:0.35277778"
         id="path1973"
         inkscape:connector-curvature="0" />
      <path
         d="m 329.62204,29.178552 c 0,1.017411 -0.82444,1.841853 -1.84185,1.841853 -1.01706,0 -1.84186,-0.824442 -1.84186,-1.841853 0,-1.017058 0.8248,-1.841853 1.84186,-1.841853 1.01741,0 1.84185,0.824795 1.84185,1.841853"
         style="fill:#800000;fill-opacity:1;fill-rule:nonzero;stroke:none;stroke-width:0.35277778"
         id="path1977"
         inkscape:connector-curvature="0" />
      <path
         d="m 334.44793,29.178552 c 0,1.017411 -0.82479,1.841853 -1.84185,1.841853 -1.01741,0 -1.84186,-0.824442 -1.84186,-1.841853 0,-1.017058 0.82445,-1.841853 1.84186,-1.841853 1.01706,0 1.84185,0.824795 1.84185,1.841853"
         style="fill:#800000;fill-opacity:1;fill-rule:nonzero;stroke:none;stroke-width:0.35277778"
         id="path1981"
         inkscape:connector-curvature="0" />
      <path
         d="m 339.27382,29.178552 c 0,1.017411 -0.82479,1.841853 -1.84185,1.841853 -1.01741,0 -1.84186,-0.824442 -1.84186,-1.841853 0,-1.017058 0.82445,-1.841853 1.84186,-1.841853 1.01706,0 1.84185,0.824795 1.84185,1.841853"
         style="fill:#800000;fill-opacity:1;fill-rule:nonzero;stroke:none;stroke-width:0.35277778"
         id="path1985"
         inkscape:connector-curvature="0" />
      <path
         d="m 344.09954,29.178552 c 0,1.017411 -0.82444,1.841853 -1.84185,1.841853 -1.01706,0 -1.84186,-0.824442 -1.84186,-1.841853 0,-1.017058 0.8248,-1.841853 1.84186,-1.841853 1.01741,0 1.84185,0.824795 1.84185,1.841853"
         style="fill:#800000;fill-opacity:1;fill-rule:nonzero;stroke:none;stroke-width:0.35277778"
         id="path1989"
         inkscape:connector-curvature="0" />
      <path
         d="m 348.92544,29.178552 c 0,1.017411 -0.82444,1.841853 -1.84185,1.841853 -1.01706,0 -1.84186,-0.824442 -1.84186,-1.841853 0,-1.017058 0.8248,-1.841853 1.84186,-1.841853 1.01741,0 1.84185,0.824795 1.84185,1.841853"
         style="fill:#800000;fill-opacity:1;fill-rule:nonzero;stroke:none;stroke-width:0.35277778"
         id="path1993"
         inkscape:connector-curvature="0" />
      <path
         d="m 319.97042,34.021661 c 0,1.017411 -0.82479,1.841853 -1.84185,1.841853 -1.01741,0 -1.84186,-0.824442 -1.84186,-1.841853 0,-1.017058 0.82445,-1.841853 1.84186,-1.841853 1.01706,0 1.84185,0.824795 1.84185,1.841853"
         style="fill:#800000;fill-opacity:1;fill-rule:nonzero;stroke:none;stroke-width:0.35277778"
         id="path1997"
         inkscape:connector-curvature="0" />
      <path
         d="m 324.79614,34.021661 c 0,1.017411 -0.82444,1.841853 -1.84185,1.841853 -1.01706,0 -1.84186,-0.824442 -1.84186,-1.841853 0,-1.017058 0.8248,-1.841853 1.84186,-1.841853 1.01741,0 1.84185,0.824795 1.84185,1.841853"
         style="fill:#800000;fill-opacity:1;fill-rule:nonzero;stroke:none;stroke-width:0.35277778"
         id="path2001"
         inkscape:connector-curvature="0" />
      <path
         d="m 329.62204,34.021661 c 0,1.017411 -0.82444,1.841853 -1.84185,1.841853 -1.01706,0 -1.84186,-0.824442 -1.84186,-1.841853 0,-1.017058 0.8248,-1.841853 1.84186,-1.841853 1.01741,0 1.84185,0.824795 1.84185,1.841853"
         style="fill:#800000;fill-opacity:1;fill-rule:nonzero;stroke:none;stroke-width:0.35277778"
         id="path2005"
         inkscape:connector-curvature="0" />
      <path
         d="m 334.44793,34.021661 c 0,1.017411 -0.82479,1.841853 -1.84185,1.841853 -1.01741,0 -1.84186,-0.824442 -1.84186,-1.841853 0,-1.017058 0.82445,-1.841853 1.84186,-1.841853 1.01706,0 1.84185,0.824795 1.84185,1.841853"
         style="fill:#800000;fill-opacity:1;fill-rule:nonzero;stroke:none;stroke-width:0.35277778"
         id="path2009"
         inkscape:connector-curvature="0" />
      <path
         d="m 339.27382,34.021661 c 0,1.017411 -0.82479,1.841853 -1.84185,1.841853 -1.01741,0 -1.84186,-0.824442 -1.84186,-1.841853 0,-1.017058 0.82445,-1.841853 1.84186,-1.841853 1.01706,0 1.84185,0.824795 1.84185,1.841853"
         style="fill:#800000;fill-opacity:1;fill-rule:nonzero;stroke:none;stroke-width:0.35277778"
         id="path2013"
         inkscape:connector-curvature="0" />
      <path
         d="m 344.09954,34.021661 c 0,1.017411 -0.82444,1.841853 -1.84185,1.841853 -1.01706,0 -1.84186,-0.824442 -1.84186,-1.841853 0,-1.017058 0.8248,-1.841853 1.84186,-1.841853 1.01741,0 1.84185,0.824795 1.84185,1.841853"
         style="fill:#800000;fill-opacity:1;fill-rule:nonzero;stroke:none;stroke-width:0.35277778"
         id="path2017"
         inkscape:connector-curvature="0" />
      <path
         d="m 348.92544,34.021661 c 0,1.017411 -0.82444,1.841853 -1.84185,1.841853 -1.01706,0 -1.84186,-0.824442 -1.84186,-1.841853 0,-1.017058 0.8248,-1.841853 1.84186,-1.841853 1.01741,0 1.84185,0.824795 1.84185,1.841853"
         style="fill:#800000;fill-opacity:1;fill-rule:nonzero;stroke:none;stroke-width:0.35277778"
         id="path2021"
         inkscape:connector-curvature="0" />
      <path
         d="m 319.97042,38.864947 c 0,1.017058 -0.82479,1.841853 -1.84185,1.841853 -1.01741,0 -1.84186,-0.824795 -1.84186,-1.841853 0,-1.017411 0.82445,-1.842206 1.84186,-1.842206 1.01706,0 1.84185,0.824795 1.84185,1.842206"
         style="fill:#800000;fill-opacity:1;fill-rule:nonzero;stroke:none;stroke-width:0.35277778"
         id="path2025"
         inkscape:connector-curvature="0" />
      <path
         d="m 324.79614,38.864947 c 0,1.017058 -0.82444,1.841853 -1.84185,1.841853 -1.01706,0 -1.84186,-0.824795 -1.84186,-1.841853 0,-1.017411 0.8248,-1.842206 1.84186,-1.842206 1.01741,0 1.84185,0.824795 1.84185,1.842206"
         style="fill:#800000;fill-opacity:1;fill-rule:nonzero;stroke:none;stroke-width:0.35277778"
         id="path2029"
         inkscape:connector-curvature="0" />
      <path
         d="m 329.62204,38.864947 c 0,1.017058 -0.82444,1.841853 -1.84185,1.841853 -1.01706,0 -1.84186,-0.824795 -1.84186,-1.841853 0,-1.017411 0.8248,-1.842206 1.84186,-1.842206 1.01741,0 1.84185,0.824795 1.84185,1.842206"
         style="fill:#800000;fill-opacity:1;fill-rule:nonzero;stroke:none;stroke-width:0.35277778"
         id="path2033"
         inkscape:connector-curvature="0" />
      <path
         d="m 334.44793,38.864947 c 0,1.017058 -0.82479,1.841853 -1.84185,1.841853 -1.01741,0 -1.84186,-0.824795 -1.84186,-1.841853 0,-1.017411 0.82445,-1.842206 1.84186,-1.842206 1.01706,0 1.84185,0.824795 1.84185,1.842206"
         style="fill:#800000;fill-opacity:1;fill-rule:nonzero;stroke:none;stroke-width:0.35277778"
         id="path2037"
         inkscape:connector-curvature="0" />
      <path
         d="m 339.27382,38.864947 c 0,1.017058 -0.82479,1.841853 -1.84185,1.841853 -1.01741,0 -1.84186,-0.824795 -1.84186,-1.841853 0,-1.017411 0.82445,-1.842206 1.84186,-1.842206 1.01706,0 1.84185,0.824795 1.84185,1.842206"
         style="fill:#800000;fill-opacity:1;fill-rule:nonzero;stroke:none;stroke-width:0.35277778"
         id="path2041"
         inkscape:connector-curvature="0" />
      <path
         d="m 344.09954,38.864947 c 0,1.017058 -0.82444,1.841853 -1.84185,1.841853 -1.01706,0 -1.84186,-0.824795 -1.84186,-1.841853 0,-1.017411 0.8248,-1.842206 1.84186,-1.842206 1.01741,0 1.84185,0.824795 1.84185,1.842206"
         style="fill:#800000;fill-opacity:1;fill-rule:nonzero;stroke:none;stroke-width:0.35277778"
         id="path2045"
         inkscape:connector-curvature="0" />
      <path
         d="m 348.92544,38.864947 c 0,1.017058 -0.82444,1.841853 -1.84185,1.841853 -1.01706,0 -1.84186,-0.824795 -1.84186,-1.841853 0,-1.017411 0.8248,-1.842206 1.84186,-1.842206 1.01741,0 1.84185,0.824795 1.84185,1.842206"
         style="fill:#800000;fill-opacity:1;fill-rule:nonzero;stroke:none;stroke-width:0.35277778"
         id="path2049"
         inkscape:connector-curvature="0" />
      <path
         d="m 319.97042,43.708057 c 0,1.017058 -0.82479,1.841853 -1.84185,1.841853 -1.01741,0 -1.84186,-0.824795 -1.84186,-1.841853 0,-1.017411 0.82445,-1.842206 1.84186,-1.842206 1.01706,0 1.84185,0.824795 1.84185,1.842206"
         style="fill:#800000;fill-opacity:1;fill-rule:nonzero;stroke:none;stroke-width:0.35277778"
         id="path2053"
         inkscape:connector-curvature="0" />
      <path
         d="m 324.79614,43.708057 c 0,1.017058 -0.82444,1.841853 -1.84185,1.841853 -1.01706,0 -1.84186,-0.824795 -1.84186,-1.841853 0,-1.017411 0.8248,-1.842206 1.84186,-1.842206 1.01741,0 1.84185,0.824795 1.84185,1.842206"
         style="fill:#800000;fill-opacity:1;fill-rule:nonzero;stroke:none;stroke-width:0.35277778"
         id="path2057"
         inkscape:connector-curvature="0" />
      <path
         d="m 329.62204,43.708057 c 0,1.017058 -0.82444,1.841853 -1.84185,1.841853 -1.01706,0 -1.84186,-0.824795 -1.84186,-1.841853 0,-1.017411 0.8248,-1.842206 1.84186,-1.842206 1.01741,0 1.84185,0.824795 1.84185,1.842206"
         style="fill:#800000;fill-opacity:1;fill-rule:nonzero;stroke:none;stroke-width:0.35277778"
         id="path2061"
         inkscape:connector-curvature="0" />
      <path
         d="m 334.44793,43.708057 c 0,1.017058 -0.82479,1.841853 -1.84185,1.841853 -1.01741,0 -1.84186,-0.824795 -1.84186,-1.841853 0,-1.017411 0.82445,-1.842206 1.84186,-1.842206 1.01706,0 1.84185,0.824795 1.84185,1.842206"
         style="fill:#800000;fill-opacity:1;fill-rule:nonzero;stroke:none;stroke-width:0.35277778"
         id="path2065"
         inkscape:connector-curvature="0" />
      <path
         d="m 339.27382,43.708057 c 0,1.017058 -0.82479,1.841853 -1.84185,1.841853 -1.01741,0 -1.84186,-0.824795 -1.84186,-1.841853 0,-1.017411 0.82445,-1.842206 1.84186,-1.842206 1.01706,0 1.84185,0.824795 1.84185,1.842206"
         style="fill:#800000;fill-opacity:1;fill-rule:nonzero;stroke:none;stroke-width:0.35277778"
         id="path2069"
         inkscape:connector-curvature="0" />
      <path
         d="m 344.09954,43.708057 c 0,1.017058 -0.82444,1.841853 -1.84185,1.841853 -1.01706,0 -1.84186,-0.824795 -1.84186,-1.841853 0,-1.017411 0.8248,-1.842206 1.84186,-1.842206 1.01741,0 1.84185,0.824795 1.84185,1.842206"
         style="fill:#800000;fill-opacity:1;fill-rule:nonzero;stroke:none;stroke-width:0.35277778"
         id="path2073"
         inkscape:connector-curvature="0" />
      <path
         d="m 348.92544,43.708057 c 0,1.017058 -0.82444,1.841853 -1.84185,1.841853 -1.01706,0 -1.84186,-0.824795 -1.84186,-1.841853 0,-1.017411 0.8248,-1.842206 1.84186,-1.842206 1.01741,0 1.84185,0.824795 1.84185,1.842206"
         style="fill:#800000;fill-opacity:1;fill-rule:nonzero;stroke:none;stroke-width:0.35277778"
         id="path2077"
         inkscape:connector-curvature="0" />
      <path
         d="m 363.91451,27.221729 c 0.72178,0 1.42663,0.05186 2.12019,-0.01552 0.60502,-0.05891 0.93769,-0.49777 0.9578,-1.108075 0.0187,-0.57785 0.0176,-1.157111 7e-4,-1.734961 -0.0176,-0.583142 -0.32526,-1.010356 -0.88194,-1.081617 -0.71826,-0.09208 -1.44851,-0.08643 -2.19675,-0.124178 z m -1.04387,1.018117 v -6.036028 c 1.17757,0.04339 2.34809,0.0095 3.49709,0.150989 1.08726,0.133703 1.65805,0.941917 1.65911,2.053167 3.5e-4,0.535516 3.5e-4,1.07068 0,1.605844 -7.1e-4,1.235075 -0.63465,1.974497 -1.85596,2.160058 -0.19474,0.02963 -0.39159,0.06138 -0.58738,0.0628 -0.88582,0.0067 -1.772,0.0032 -2.71286,0.0032"
         style="fill:#800000;fill-opacity:1;fill-rule:nonzero;stroke:none;stroke-width:0.35277778"
         id="path2083"
         inkscape:connector-curvature="0" />
      <path
         d="m 371.39865,23.937862 c 0.33408,0.03739 0.71931,-0.182033 0.77752,0.216958 0.49107,-0.116064 0.94933,-0.279752 1.41852,-0.319969 0.51259,-0.0441 0.94862,0.206728 1.19592,0.525639 0.46813,-0.192617 0.86924,-0.449086 1.29998,-0.516467 0.99484,-0.155222 1.74625,0.409575 1.82704,1.413581 0.0769,0.963436 0.0162,1.938161 0.0162,2.945341 h -0.94545 c 0,-0.720372 0.005,-1.4351 -0.004,-2.149122 -0.003,-0.223661 -0.0145,-0.455083 -0.0755,-0.667808 -0.10583,-0.365831 -0.33831,-0.605014 -0.7553,-0.619125 -0.41945,-0.01446 -0.72319,0.163689 -0.8509,0.552097 -0.0857,0.261408 -0.11006,0.551039 -0.11677,0.828675 -0.0155,0.686505 -0.005,1.373717 -0.005,2.072217 h -0.98708 c 0,-0.633589 0.004,-1.248834 -0.002,-1.863725 -0.003,-0.267053 -0.008,-0.536928 -0.0483,-0.799748 -0.0836,-0.540102 -0.38206,-0.79763 -0.86995,-0.7874 -0.46461,0.0099 -0.81704,0.306917 -0.85302,0.820914 -0.0462,0.658989 -0.0261,1.322917 -0.0332,1.985081 -0.002,0.208139 -3.5e-4,0.416278 -3.5e-4,0.643819 h -0.98884 z"
         style="fill:#800000;fill-opacity:1;fill-rule:nonzero;stroke:none;stroke-width:0.35277778"
         id="path2087"
         inkscape:connector-curvature="0" />
      <path
         d="m 358.85539,36.692119 h -0.9458 c 0,-0.614892 0.004,-1.217083 -10e-4,-1.819275 -0.002,-0.295275 0.002,-0.594078 -0.0392,-0.885119 -0.066,-0.463903 -0.36195,-0.73272 -0.77329,-0.751417 -0.47095,-0.02152 -0.83255,0.218369 -0.91334,0.695678 -0.072,0.426861 -0.0663,0.868539 -0.0765,1.303866 -0.012,0.474839 -0.003,0.950384 -0.003,1.4478 h -0.98743 c 0,-0.322439 0.005,-0.641702 -0.001,-0.960966 -0.01,-0.577498 0,-1.156759 -0.0487,-1.731434 -0.0392,-0.464608 -0.35207,-0.73413 -0.76729,-0.754944 -0.45826,-0.02293 -0.80116,0.197556 -0.91475,0.645583 -0.0646,0.254706 -0.0681,0.528814 -0.0716,0.794456 -0.01,0.659341 -0.003,1.319036 -0.003,2.00413 h -0.98319 v -4.246033 c 0.31644,-0.02716 0.66604,-0.183092 0.77787,0.195086 0.4826,-0.119591 0.93733,-0.294569 1.403,-0.331258 0.51012,-0.03986 0.96132,0.187678 1.2199,0.54363 0.43145,-0.189441 0.81527,-0.449086 1.2319,-0.522463 1.00683,-0.176742 1.76989,0.335491 1.87502,1.344788 0.1023,0.985661 0.0219,1.990725 0.0219,3.027892"
         style="fill:#800000;fill-opacity:1;fill-rule:nonzero;stroke:none;stroke-width:0.35277778"
         id="path2091"
         inkscape:connector-curvature="0" />
      <path
         d="m 357.51406,28.207566 v -5.935839 h 4.31059 v 0.909109 h -3.24802 v 1.627716 h 2.90547 v 0.969081 h -2.9157 v 1.4732 h 3.25896 v 0.956733 z"
         style="fill:#800000;fill-opacity:1;fill-rule:nonzero;stroke:none;stroke-width:0.35277778"
         id="path2095"
         inkscape:connector-curvature="0" />
      <path
         d="m 368.594,45.154658 h -0.98778 v -2.4003 h -3.04518 v 2.389717 h -1.02552 v -5.947481 h 1.01388 v 2.537178 h 3.02931 v -2.529064 h 1.01529 z"
         style="fill:#800000;fill-opacity:1;fill-rule:nonzero;stroke:none;stroke-width:0.35277778"
         id="path2099"
         inkscape:connector-curvature="0" />
      <path
         d="m 373.24692,42.899173 c -0.34396,-0.940153 -0.66252,-1.812572 -1.01247,-2.769658 -0.19685,0.535869 -0.35772,0.970139 -0.51541,1.405819 -0.16157,0.445206 -0.31997,0.890764 -0.49001,1.363839 z m -1.80834,-3.696758 c 0.51118,-0.0078 1.09114,-0.183445 1.43828,0.02646 0.32385,0.195792 0.4258,0.791986 0.58208,1.227314 0.51294,1.430867 1.00647,2.868436 1.5053,4.303889 0.0402,0.116064 0.0646,0.237772 0.11077,0.410986 -0.30338,0 -0.56973,0.0254 -0.82691,-0.0127 -0.10019,-0.01482 -0.21131,-0.156633 -0.26211,-0.2667 -0.14746,-0.3175 -0.18027,-0.78987 -0.42016,-0.936272 -0.28222,-0.172156 -0.73378,-0.07197 -1.11195,-0.07832 -0.42298,-0.0071 -0.84632,0.0095 -1.2693,-0.0056 -0.23001,-0.0085 -0.38029,0.05362 -0.4318,0.291747 -0.0148,0.06809 -0.0462,0.132997 -0.0709,0.198614 -0.31891,0.856191 -0.31891,0.856191 -1.3148,0.787047 0.69603,-1.997428 1.38571,-3.976864 2.07151,-5.946422"
         style="fill:#800000;fill-opacity:1;fill-rule:nonzero;stroke:none;stroke-width:0.35277778"
         id="path2103"
         inkscape:connector-curvature="0" />
      <path
         d="m 353.33893,42.130576 c 0.73448,0 1.40899,0.02222 2.08139,-0.0074 0.49389,-0.02152 0.72319,-0.303389 0.73977,-0.798689 0.0286,-0.849489 -0.0963,-1.105606 -0.69462,-1.160992 -0.62865,-0.05786 -1.26541,-0.03951 -1.89829,-0.02787 -0.0776,0.0014 -0.21449,0.166158 -0.21802,0.259291 -0.0205,0.561975 -0.0102,1.125009 -0.0102,1.735667 m -1.03611,3.020836 v -5.925961 c 1.15641,0 2.31281,-0.07796 3.45299,0.02364 0.9712,0.08678 1.43334,0.749653 1.43298,1.722614 -3.5e-4,0.253294 0.0166,0.511528 -0.0243,0.759178 -0.12735,0.774347 -0.78352,1.306336 -1.66723,1.344789 -0.56338,0.02434 -1.12818,0.0078 -1.69192,0.0092 -0.13723,7.05e-4 -0.27446,3.53e-4 -0.46849,3.53e-4 v 2.066219 z"
         style="fill:#800000;fill-opacity:1;fill-rule:nonzero;stroke:none;stroke-width:0.35277778"
         id="path2107"
         inkscape:connector-curvature="0" />
      <path
         d="m 376.39437,34.553756 c 0,-0.112889 0.006,-0.226131 -10e-4,-0.338314 -0.0395,-0.632883 -0.36865,-0.958497 -0.98601,-0.979664 -0.79622,-0.02752 -1.19274,0.255411 -1.26118,0.924984 -0.0258,0.251177 -0.0226,0.508705 -0.002,0.760588 0.0427,0.519995 0.36125,0.848784 0.87736,0.938389 0.92357,0.160161 1.37407,-0.268464 1.37301,-1.305983 m -2.26836,2.058458 v 2.014009 h -0.97014 V 32.4258 c 0.33726,-0.02505 0.69074,-0.148166 0.84349,0.3429 0.59126,-0.455436 1.24178,-0.547511 1.93464,-0.45473 0.78422,0.10548 1.31021,0.56515 1.40123,1.348669 0.066,0.567267 0.072,1.153936 0.009,1.721203 -0.0949,0.861483 -0.65617,1.382889 -1.52365,1.405114 -0.54574,0.01411 -1.09467,-0.109361 -1.69474,-0.176742"
         style="fill:#800000;fill-opacity:1;fill-rule:nonzero;stroke:none;stroke-width:0.35277778"
         id="path2111"
         inkscape:connector-curvature="0" />
      <path
         d="m 380.00794,26.076753 c 0,0.09878 -0.003,0.197556 3.5e-4,0.295981 0.0215,0.693561 0.36054,1.024466 1.05939,1.035402 0.73696,0.01164 1.15006,-0.342194 1.1811,-1.023761 0.0109,-0.239183 0.0176,-0.481541 -0.01,-0.718608 -0.0744,-0.649464 -0.48966,-0.931686 -1.28729,-0.896761 -0.59654,0.02646 -0.91193,0.349603 -0.94227,0.969433 -0.006,0.112536 -0.001,0.225425 -0.002,0.338314 m 2.39324,-1.781528 c 0.1263,-0.485775 0.48895,-0.346075 0.83256,-0.351366 v 4.28625 c -0.32244,-0.01446 -0.68933,0.15875 -0.83608,-0.378531 -0.55563,0.454025 -1.1811,0.541867 -1.83939,0.486128 -0.87877,-0.07479 -1.44462,-0.591961 -1.52223,-1.470378 -0.0483,-0.543983 -0.0455,-1.100314 0.01,-1.643592 0.0797,-0.78105 0.6043,-1.266825 1.37971,-1.372658 0.79692,-0.108656 1.24636,-0.01199 1.97555,0.444147"
         style="fill:#800000;fill-opacity:1;fill-rule:nonzero;stroke:none;stroke-width:0.35277778"
         id="path2115"
         inkscape:connector-curvature="0" />
      <path
         d="m 383.58017,34.058879 c -0.0141,-0.667103 -0.31856,-0.946856 -0.98566,-0.935214 -0.65405,0.01164 -0.99766,0.323497 -1.00471,0.935214 z m 0.0924,1.28905 h 0.93839 c 0.003,0.556331 -0.24342,0.948619 -0.70238,1.178278 -0.80116,0.400402 -1.63478,0.431447 -2.4384,0.02611 -0.72179,-0.364066 -0.94157,-1.030816 -0.95744,-1.798814 -0.0183,-0.874183 0.03,-1.733902 0.91757,-2.198158 0.79834,-0.417336 1.63619,-0.395464 2.42323,0.0575 0.508,0.2921 0.79093,0.747536 0.76976,1.360664 -0.01,0.278341 -0.002,0.557389 -0.002,0.88018 h -3.05082 c -0.0116,0.609248 0.23671,0.976842 0.70732,1.0922 0.63288,0.155575 1.14511,-0.06597 1.39453,-0.597958"
         style="fill:#800000;fill-opacity:1;fill-rule:nonzero;stroke:none;stroke-width:0.35277778"
         id="path2119"
         inkscape:connector-curvature="0" />
      <path
         d="m 392.96561,34.066464 c 0.0296,-0.640997 -0.28152,-0.930628 -0.94791,-0.947208 -0.54998,-0.01376 -1.14195,0.364772 -1.01812,0.947208 z m 0.09,1.273175 h 1.03258 c -0.12841,0.310092 -0.17992,0.616656 -0.35243,0.821267 -0.58631,0.693561 -1.39982,0.727075 -2.21368,0.615597 -0.72072,-0.09878 -1.33138,-0.486481 -1.46297,-1.217083 -0.12135,-0.672395 -0.0882,-1.394178 0.004,-2.076803 0.0677,-0.503767 0.4819,-0.849136 0.97155,-1.031522 0.64488,-0.239889 1.29717,-0.242712 1.93675,0.01693 0.70979,0.288572 1.04705,0.807155 1.04846,1.56845 3.5e-4,0.252589 0,0.505178 0,0.804333 h -3.02931 c -0.0603,0.593372 0.21061,0.997656 0.70627,1.108428 0.63923,0.142875 1.14864,-0.08326 1.35925,-0.6096"
         style="fill:#800000;fill-opacity:1;fill-rule:nonzero;stroke:none;stroke-width:0.35277778"
         id="path2123"
         inkscape:connector-curvature="0" />
      <path
         d="m 363.10287,32.418851 h 0.96273 v 4.251678 c -0.34819,0.0575 -0.68545,0.153811 -0.79516,-0.267053 -0.36583,0.136172 -0.70697,0.332669 -1.06892,0.38488 -1.25589,0.180975 -2.01401,-0.423333 -2.10008,-1.704975 -0.0586,-0.868186 -0.0113,-1.74378 -0.0113,-2.647949 h 0.99413 c 0,0.356305 -7.1e-4,0.730955 0,1.105252 7e-4,0.465314 -0.0169,0.931686 0.008,1.395942 0.0314,0.578203 0.36407,0.910519 0.88936,0.937683 0.5842,0.03034 1.00506,-0.267405 1.06856,-0.844903 0.061,-0.557741 0.0406,-1.125008 0.0512,-1.688041 0.006,-0.293864 0.001,-0.588081 0.001,-0.922514"
         style="fill:#800000;fill-opacity:1;fill-rule:nonzero;stroke:none;stroke-width:0.35277778"
         id="path2127"
         inkscape:connector-curvature="0" />
      <path
         d="m 353.31586,27.24413 h 3.36832 v 0.973314 h -4.3822 v -5.948892 h 1.01388 z"
         style="fill:#800000;fill-opacity:1;fill-rule:nonzero;stroke:none;stroke-width:0.35277778"
         id="path2131"
         inkscape:connector-curvature="0" />
      <path
         d="m 376.83397,40.135159 h -2.01083 v -0.926394 h 5.04754 v 0.90805 h -1.99602 v 5.028847 h -1.04069 z"
         style="fill:#800000;fill-opacity:1;fill-rule:nonzero;stroke:none;stroke-width:0.35277778"
         id="path2135"
         inkscape:connector-curvature="0" />
      <path
         d="m 393.03486,28.192044 c 0.54469,-0.729897 1.05692,-1.417461 1.58362,-2.124075 -0.53658,-0.692503 -1.06715,-1.376892 -1.651,-2.130425 0.40746,0 0.72813,-0.01975 1.04387,0.01058 0.1143,0.01094 0.23953,0.123825 0.32067,0.222603 0.30269,0.368653 0.58985,0.750711 0.90417,1.156053 0.27305,-0.336197 0.54716,-0.623006 0.76059,-0.949678 0.23601,-0.361597 0.53129,-0.506589 0.95215,-0.443794 0.14993,0.02258 0.30586,0.0035 0.55774,0.0035 -0.59231,0.748241 -1.1363,1.435805 -1.68628,2.130424 0.55633,0.716845 1.08868,1.403703 1.65912,2.138892 -0.68192,0.0695 -1.27635,0.155928 -1.64077,-0.551392 -0.15029,-0.2921 -0.40323,-0.531283 -0.64276,-0.836788 -0.23636,0.305505 -0.48401,0.546452 -0.63606,0.837141 -0.33267,0.636764 -0.85796,0.668514 -1.52506,0.536928"
         style="fill:#800000;fill-opacity:1;fill-rule:nonzero;stroke:none;stroke-width:0.35277778"
         id="path2139"
         inkscape:connector-curvature="0" />
      <path
         d="m 389.5467,36.706089 c -0.40746,0 -0.71543,0.02328 -1.01706,-0.01094 -0.12911,-0.01482 -0.27128,-0.127 -0.36124,-0.233892 -0.30692,-0.365125 -0.59373,-0.747183 -0.93028,-1.176866 -0.25364,0.328788 -0.5087,0.606777 -0.70167,0.923219 -0.24977,0.409575 -0.57679,0.581731 -1.04775,0.50165 -0.10901,-0.01834 -0.22366,-0.0028 -0.44203,-0.0028 0.5595,-0.754239 1.0735,-1.447095 1.61043,-2.170995 -0.52741,-0.682977 -1.05728,-1.36913 -1.64501,-2.130072 0.40499,0 0.73555,-0.01658 1.06292,0.0095 0.10125,0.0081 0.21379,0.115711 0.28681,0.20567 0.30163,0.370769 0.5902,0.752475 0.91581,1.172633 0.266,-0.328083 0.53834,-0.610658 0.74754,-0.934156 0.24342,-0.376413 0.54963,-0.529166 0.98707,-0.459316 0.14535,0.02328 0.29739,0.0039 0.53728,0.0039 -0.51788,0.651581 -0.96837,1.24072 -1.44462,1.808339 -0.19544,0.232833 -0.22014,0.390878 -0.009,0.640997 0.48542,0.575734 0.93168,1.184275 1.45097,1.853142"
         style="fill:#800000;fill-opacity:1;fill-rule:nonzero;stroke:none;stroke-width:0.35277778"
         id="path2143"
         inkscape:connector-curvature="0" />
      <g
         style="fill:#800000"
         transform="matrix(0.35277777,0,0,-0.35277777,367.70344,33.352301)"
         id="g2145">
        <path
           inkscape:connector-curvature="0"
           id="path2147"
           style="fill:#800000;fill-opacity:1;fill-rule:nonzero;stroke:none"
           d="m 0,0 c -0.591,0.037 -1.057,0.066 -1.601,0.1 v 2.529 c 0.51,0.037 0.975,0.069 1.55,0.11 V 6.056 H 2.811 V 2.722 H 6.242 V 0.042 H 2.877 c 0,-1.673 -0.075,-3.263 0.023,-4.841 0.078,-1.223 0.886,-1.915 2.13,-2.047 0.471,-0.05 0.952,-0.008 1.517,-0.008 V -9.296 C 3.022,-10.445 0.035,-8.364 0.002,-4.698 -0.013,-3.15 0,-1.602 0,0" />
      </g>
      <path
         d="m 386.90158,27.309606 v 0.972256 c -0.46496,-0.0575 -0.91652,-0.06244 -1.33773,-0.177448 -0.60396,-0.164747 -0.93275,-0.665691 -0.95003,-1.347611 -0.0159,-0.616303 -0.004,-1.232958 -0.004,-1.865136 -0.21132,-0.01552 -0.37571,-0.02752 -0.56692,-0.04128 v -0.897466 c 0.17463,-0.01023 0.33902,-0.02011 0.55492,-0.03281 v -1.186744 h 0.98214 v 1.19133 h 1.21214 v 0.942622 h -1.1945 c 0,0.539398 -0.0159,1.030817 0.004,1.520825 0.0261,0.648406 0.30022,0.899937 0.95674,0.921103 0.0981,0.0028 0.19649,3.53e-4 0.34325,3.53e-4"
         style="fill:#800000;fill-opacity:1;fill-rule:nonzero;stroke:none;stroke-width:0.35277778"
         id="path2151"
         inkscape:connector-curvature="0" />
      <path
         inkscape:connector-curvature="0"
         id="path2153"
         style="fill:#800000;fill-opacity:1;fill-rule:nonzero;stroke:none;stroke-width:0.35277778"
         d="m 366.3184,36.688485 h -0.95497 v -6.476294 h 0.95497 z" />
      <path
         inkscape:connector-curvature="0"
         id="path2155"
         style="fill:#800000;fill-opacity:1;fill-rule:nonzero;stroke:none;stroke-width:0.35277778"
         d="m 379.44174,36.688485 h -0.95497 v -6.476294 h 0.95497 z" />
      <path
         inkscape:connector-curvature="0"
         id="path2157"
         style="fill:#800000;fill-opacity:1;fill-rule:nonzero;stroke:none;stroke-width:0.35277778"
         d="m 359.19265,45.159385 h -0.99695 v -5.96265 h 0.99695 z" />
      <path
         d="m 396.04452,36.684216 h -0.96626 v -4.258028 c 0.35137,-0.03104 0.70944,-0.142875 0.83115,0.250473 0.5595,-0.152753 1.08832,-0.297392 1.67781,-0.458612 v 0.945092 c -0.19474,0 -0.38629,-0.0092 -0.57679,0.0018 -0.60114,0.03493 -0.9324,0.368653 -0.94192,0.971197 -0.0113,0.705203 -0.002,1.411111 -0.004,2.116667 -3.5e-4,0.13723 -0.013,0.274461 -0.0205,0.431447"
         style="fill:#800000;fill-opacity:1;fill-rule:nonzero;stroke:none;stroke-width:0.35277778"
         id="path2161"
         inkscape:connector-curvature="0" />
      <path
         d="m 387.78867,23.950632 c 0.36195,-0.02328 0.72002,-0.112536 0.82409,0.258586 0.55139,-0.151342 1.07915,-0.29598 1.66582,-0.456847 v 0.941211 c -0.17287,0 -0.34925,-0.0053 -0.52494,0.0011 -0.64523,0.02364 -0.9786,0.363714 -0.98248,1.011061 -0.005,0.827617 -0.001,1.655234 -0.001,2.50825 h -0.98143 z"
         style="fill:#800000;fill-opacity:1;fill-rule:nonzero;stroke:none;stroke-width:0.35277778"
         id="path2165"
         inkscape:connector-curvature="0" />
      <path
         inkscape:connector-curvature="0"
         id="path2167"
         style="fill:#800000;fill-opacity:1;fill-rule:nonzero;stroke:none;stroke-width:0.35277778"
         d="m 392.213,28.217938 h -0.95709 v -4.247444 h 0.95709 z" />
      <path
         inkscape:connector-curvature="0"
         id="path2169"
         style="fill:#800000;fill-opacity:1;fill-rule:nonzero;stroke:none;stroke-width:0.35277778"
         d="m 370.91757,32.414229 h 0.95708 v 4.255559 h -0.95708 z" />
      <path
         inkscape:connector-curvature="0"
         id="path2171"
         style="fill:#800000;fill-opacity:1;fill-rule:nonzero;stroke:none;stroke-width:0.35277778"
         d="m 362.43573,43.254738 h -2.16006 v -0.838553 h 2.16006 z" />
      <path
         inkscape:connector-curvature="0"
         id="path2173"
         style="fill:#800000;fill-opacity:1;fill-rule:nonzero;stroke:none;stroke-width:0.35277778"
         d="m 371.88206,31.827913 h -0.99166 v -1.025525 h 0.99166 z" />
      <path
         inkscape:connector-curvature="0"
         id="path2175"
         style="fill:#800000;fill-opacity:1;fill-rule:nonzero;stroke:none;stroke-width:0.35277778"
         d="M 392.21935,23.362657 H 391.2351 V 22.33678 h 0.98425 z" />
    </g>
  </g>
</svg>
